<?xml version="1.0" standalone="no"?>
<!DOCTYPE svg PUBLIC "-//W3C//DTD SVG 20010904//EN"
 "http://www.w3.org/TR/2001/REC-SVG-20010904/DTD/svg10.dtd">
<svg version="1.0" xmlns="http://www.w3.org/2000/svg"
 width="960.000000pt" height="1280.000000pt" viewBox="0 0 960.000000 1280.000000"
 preserveAspectRatio="xMidYMid meet">

<g transform="translate(0.000000,1280.000000) scale(0.100000,-0.100000)"
fill="#000000" stroke="none">
<path d="M4648 11859 c-20 -40 -40 -60 -86 -83 -42 -21 -112 -84 -112 -100 0
-7 -11 -23 -24 -35 -23 -21 -30 -23 -95 -16 -80 8 -114 28 -136 81 -17 42 -41
47 -30 7 4 -16 8 -45 9 -65 l1 -38 -160 -75 c-172 -81 -217 -93 -223 -60 -12
75 -28 95 -77 95 -51 0 -90 -63 -87 -142 l2 -36 -78 -26 c-130 -44 -201 -46
-240 -8 -41 39 -112 82 -137 82 -48 0 -104 -44 -105 -82 0 -16 -28 -36 -138
-95 -49 -26 -67 -31 -82 -23 -40 22 -55 212 -21 284 11 23 21 55 24 71 2 17 8
38 12 48 7 16 2 18 -36 16 -56 -3 -69 -13 -69 -54 0 -18 -7 -50 -16 -71 -12
-30 -15 -65 -13 -159 2 -66 0 -126 -4 -133 -5 -8 2 -30 18 -58 36 -62 32 -103
-14 -126 -30 -15 -37 -15 -63 -2 -43 22 -149 54 -182 54 -33 0 -92 -33 -106
-60 -15 -29 -12 -82 8 -111 9 -14 43 -51 74 -81 62 -60 68 -89 22 -110 -12 -6
-25 -20 -28 -32 -3 -11 -46 -66 -95 -121 -50 -55 -90 -105 -91 -111 0 -6 -9
-21 -20 -34 -29 -33 -25 -38 20 -30 45 8 124 78 115 102 -6 15 28 51 57 61 30
10 31 -13 3 -43 -17 -18 -22 -29 -15 -32 21 -7 24 -99 6 -143 -12 -28 -13 -40
-5 -46 7 -4 9 -14 4 -25 -4 -11 -11 -53 -16 -94 -4 -41 -10 -87 -14 -103 -6
-23 -5 -26 9 -21 10 4 16 1 16 -9 0 -21 -150 -106 -237 -133 -91 -29 -121 -45
-151 -77 -33 -36 -12 -41 45 -12 26 14 69 27 96 29 44 4 77 23 77 44 0 11 34
22 68 22 40 0 23 -34 -18 -38 -55 -4 -69 -12 -41 -23 33 -13 14 -32 -49 -49
-56 -15 -52 -3 -34 -117 6 -37 5 -37 -13 -20 -11 9 -24 17 -30 17 -6 0 -16 7
-24 16 -16 19 -69 47 -76 40 -11 -11 48 -76 70 -76 12 -1 35 -12 52 -25 l29
-24 -28 -26 c-36 -33 -31 -59 13 -65 31 -5 58 -30 32 -30 -6 0 -11 -20 -11
-48 0 -52 -28 -100 -82 -142 -16 -12 -28 -31 -28 -43 0 -12 -6 -33 -13 -48
-16 -29 -41 -199 -30 -199 2 0 13 9 25 20 27 25 35 25 75 0 31 -19 33 -23 33
-80 0 -54 -2 -60 -21 -60 -11 0 -30 5 -41 11 -14 8 -23 8 -31 0 -14 -14 -87
-15 -87 -1 0 6 -12 10 -26 10 -38 0 -30 -41 11 -54 17 -5 63 -21 102 -37 40
-16 79 -29 88 -29 10 0 15 -10 15 -32 1 -40 20 -68 48 -68 29 0 70 -20 76 -37
3 -8 2 -22 -3 -32 -6 -10 -6 -23 0 -32 5 -7 9 -25 9 -39 l0 -25 23 26 c12 14
27 34 33 45 7 11 24 20 44 22 18 2 39 10 47 18 8 8 27 14 42 14 25 0 28 -3 23
-26 -3 -15 -13 -29 -22 -31 -10 -3 -22 -15 -28 -29 -15 -32 -61 -43 -78 -19
-11 15 -12 13 -7 -19 5 -32 3 -36 -16 -36 -11 0 -21 -5 -21 -11 0 -7 7 -8 18
-4 38 16 51 16 108 -3 56 -18 58 -19 35 -32 -13 -7 -68 -25 -122 -40 -148 -43
-285 -96 -328 -129 -23 -17 -24 -24 -22 -115 1 -60 7 -113 17 -139 9 -23 20
-62 24 -87 4 -25 13 -61 18 -80 6 -19 16 -54 22 -77 9 -35 16 -43 45 -53 19
-6 39 -9 44 -6 5 3 7 41 4 84 -9 121 16 146 96 100 l39 -22 24 29 25 29 82
-49 c86 -50 91 -61 29 -75 l-33 -7 37 -17 c24 -10 38 -23 38 -34 0 -10 14 -26
31 -36 28 -16 29 -19 15 -35 -22 -24 -20 -32 7 -30 44 4 57 -1 57 -21 0 -11
-7 -20 -15 -20 -8 0 -15 -9 -15 -20 0 -12 7 -20 18 -20 14 0 17 -7 14 -40 -4
-43 -14 -49 -38 -25 -9 8 -22 15 -30 15 -8 0 -14 -7 -14 -15 0 -8 -5 -15 -12
-15 -8 0 -6 -6 4 -17 14 -14 20 -14 33 -3 9 7 29 14 46 15 17 2 37 11 44 21
13 18 14 18 15 2 0 -24 9 -23 37 4 l23 21 9 -24 c5 -13 10 -18 10 -11 1 6 7
12 14 12 8 0 20 12 27 26 l14 26 17 -21 c14 -18 22 -19 44 -11 29 11 98 -1
144 -25 30 -15 141 -10 141 6 0 5 7 9 15 9 17 0 20 -16 4 -25 -7 -5 -4 -13 7
-26 13 -14 21 -16 35 -8 11 5 19 17 20 27 0 10 5 6 11 -11 8 -23 13 -26 24
-16 12 10 18 8 29 -7 13 -17 14 -18 15 -1 0 15 11 17 80 17 64 0 80 3 80 15 0
8 7 15 15 15 10 0 15 -10 15 -31 0 -24 -4 -30 -15 -25 -8 3 -15 1 -15 -3 0 -5
5 -11 12 -13 17 -6 -47 -73 -83 -88 -16 -7 -29 -16 -29 -21 0 -4 -20 -22 -45
-39 -24 -17 -59 -44 -77 -60 -18 -17 -36 -30 -40 -30 -13 0 -92 -53 -101 -67
-4 -7 -14 -13 -22 -13 -7 0 -15 -3 -17 -7 -5 -12 -69 -58 -107 -78 -19 -9 -52
-18 -75 -20 -23 -1 -70 -5 -106 -9 -45 -4 -77 -2 -105 8 -22 8 -41 10 -43 5
-7 -18 -47 -9 -57 14 -8 18 -18 22 -55 22 -31 0 -54 7 -72 21 -15 12 -25 24
-22 26 2 3 -7 3 -20 1 -14 -3 -31 -12 -38 -20 -19 -24 -30 -108 -33 -263 -3
-145 -6 -163 -65 -365 -5 -16 -15 -55 -23 -85 -7 -30 -20 -65 -27 -77 -12 -19
-12 -26 0 -49 17 -30 21 -256 7 -309 l-8 -30 48 -1 c26 0 62 -8 79 -17 29 -15
33 -23 43 -84 17 -98 59 -261 91 -351 107 -300 125 -348 168 -432 18 -36 36
-85 39 -110 4 -25 11 -56 17 -70 26 -60 112 -191 157 -240 27 -29 49 -57 49
-61 0 -6 52 -54 98 -90 7 -6 35 -22 62 -36 56 -29 80 -62 107 -145 10 -32 23
-58 28 -58 6 0 23 -14 38 -30 20 -20 27 -34 23 -48 -5 -16 6 -29 59 -66 69
-50 83 -75 66 -119 -7 -18 -7 -26 -1 -22 6 3 10 2 10 -4 0 -5 -4 -13 -10 -16
-14 -9 -12 -25 3 -25 7 0 33 -23 58 -51 45 -53 79 -125 79 -170 0 -14 5 -30
12 -37 9 -9 8 -12 -7 -14 -11 0 -27 0 -35 0 -8 1 -91 4 -185 7 -93 3 -181 10
-195 15 -14 4 -44 11 -67 13 -33 4 -43 2 -43 -9 0 -8 11 -19 25 -24 14 -5 25
-15 25 -21 0 -7 11 -9 33 -5 37 7 53 -1 58 -29 3 -15 13 -21 42 -23 20 -2 37
-8 37 -13 0 -6 4 -8 10 -4 5 3 7 12 4 19 -7 19 22 39 46 31 11 -3 20 -13 20
-21 0 -8 9 -14 20 -14 11 0 20 -3 20 -8 0 -4 9 -13 20 -20 11 -7 19 -9 18 -5
-4 10 12 12 30 6 7 -3 21 -3 32 0 11 3 20 1 20 -5 0 -6 7 -7 16 -4 8 3 22 -1
30 -9 9 -8 27 -15 42 -15 15 0 36 -7 46 -15 11 -8 28 -15 38 -15 12 0 18 -6
16 -17 -2 -12 5 -19 22 -23 34 -7 90 -38 90 -50 0 -6 7 -10 15 -10 9 0 18 -7
21 -15 4 -8 17 -15 30 -15 14 0 24 -6 24 -15 0 -9 6 -12 15 -9 9 4 15 0 15
-10 0 -21 46 -21 54 0 11 29 6 44 -13 44 -11 0 -23 5 -26 10 -3 6 -1 10 5 10
13 0 4 42 -22 93 -11 22 -17 45 -14 53 3 8 -1 14 -9 14 -8 0 -15 5 -15 11 0 6
-9 8 -21 4 -38 -12 -16 18 33 45 25 14 61 38 80 53 44 34 188 117 204 117 7 0
26 14 44 30 18 17 43 33 56 36 13 3 24 10 24 15 0 5 9 9 19 9 11 0 22 4 26 9
3 5 19 12 35 16 17 4 59 26 95 51 35 24 68 44 73 44 5 0 17 9 27 20 10 11 23
20 30 20 6 0 33 14 60 31 55 35 129 75 340 186 77 40 162 85 190 99 27 15 75
48 105 73 60 51 101 79 200 136 36 20 90 58 120 84 50 42 82 66 132 96 169
102 221 123 278 111 36 -7 131 -76 157 -114 65 -97 69 -218 11 -347 -25 -57
-120 -190 -204 -286 -86 -99 -164 -171 -269 -249 -33 -24 -89 -76 -125 -114
-96 -102 -143 -148 -180 -176 -19 -14 -54 -42 -78 -63 -24 -21 -67 -53 -95
-71 -29 -18 -70 -47 -92 -65 -57 -44 -57 -44 -95 -65 -19 -11 -39 -25 -43 -33
-4 -7 -14 -13 -21 -13 -7 0 -21 -9 -31 -20 -10 -11 -25 -20 -34 -20 -9 0 -24
-9 -34 -20 -10 -12 -22 -18 -27 -15 -22 13 -8 -6 14 -20 22 -15 27 -15 63 0
27 12 52 15 86 10 42 -5 56 -2 103 25 29 16 60 30 68 30 7 0 19 6 25 14 7 8
22 17 35 20 55 14 133 55 229 123 25 17 63 39 84 49 21 10 49 26 62 36 13 10
31 18 41 18 9 0 37 15 61 34 24 19 76 51 114 71 142 74 298 172 410 257 42 31
81 59 88 61 9 4 8 8 -3 16 -8 5 -11 13 -7 18 5 4 12 1 16 -6 12 -18 124 66
116 86 -3 8 -5 17 -5 19 0 3 -5 2 -10 -1 -6 -4 -18 -1 -27 7 -15 11 -16 11
-10 -5 5 -13 1 -17 -14 -17 -22 0 -40 31 -21 38 15 5 16 32 2 32 -13 0 -13 33
-1 46 6 5 11 29 13 54 3 43 4 45 42 51 21 3 41 10 45 16 3 5 23 22 45 38 37
28 38 31 33 79 -6 62 8 106 34 106 13 0 19 -7 20 -22 0 -22 1 -22 10 2 6 14 8
33 5 44 -6 22 15 96 26 96 5 0 8 7 8 15 0 8 -7 15 -16 15 -11 0 -14 5 -10 16
3 9 6 18 6 20 0 2 7 4 15 4 8 0 15 9 15 19 0 11 5 23 10 26 16 10 12 67 -7 80
-17 12 -11 35 10 35 7 0 13 16 14 38 1 28 0 32 -7 17 -7 -16 -9 -17 -9 -3 -1
28 10 48 28 48 14 1 13 3 -3 15 -16 13 -17 17 -5 31 8 9 13 25 11 34 -1 10 8
24 21 33 18 12 23 22 20 40 -3 14 0 28 6 31 6 4 11 2 11 -5 0 -10 3 -10 12 -1
10 10 10 15 -2 23 -11 8 -12 12 -2 16 6 2 12 13 12 23 0 11 9 24 20 30 13 7
20 21 20 40 0 16 5 32 10 35 6 3 10 35 10 71 0 36 4 64 10 64 6 0 10 -7 10
-15 0 -8 4 -15 8 -15 8 0 13 77 17 268 1 86 5 118 17 132 9 10 19 28 23 41 14
46 100 117 129 106 7 -3 16 -25 19 -49 9 -59 35 -220 48 -293 21 -119 30 -171
38 -230 4 -33 13 -83 19 -110 7 -28 15 -72 19 -99 l8 -50 66 -12 c36 -7 96
-26 135 -44 46 -21 90 -33 132 -36 34 -2 62 -1 62 2 0 12 -61 330 -100 519
-22 110 -50 247 -60 305 -11 58 -27 139 -36 180 -9 41 -22 111 -30 155 -7 44
-24 141 -38 215 -13 74 -36 200 -50 280 -15 80 -33 179 -41 220 -13 69 -12 78
4 105 10 18 28 32 47 36 29 7 29 7 3 8 -22 1 -28 7 -33 36 -8 39 -24 44 -50
16 -29 -32 -116 -212 -116 -241 0 -15 -7 -44 -15 -65 -11 -25 -15 -64 -14
-123 2 -110 -15 -167 -51 -167 -31 0 -36 22 -21 89 6 28 13 78 15 111 3 33 10
76 16 95 6 19 11 112 11 207 1 171 0 173 -24 195 -27 25 -57 120 -56 178 0 19
1 69 2 110 1 41 0 122 -2 180 -3 110 2 140 24 140 8 0 16 4 19 9 4 5 -2 7 -11
5 -10 -2 -24 0 -32 5 -12 8 -11 27 2 127 9 66 19 176 22 245 3 69 10 148 16
175 6 27 13 96 15 154 3 58 12 122 20 143 8 20 14 46 14 56 0 11 7 26 15 35 8
8 15 25 15 38 0 13 5 29 10 34 10 10 32 125 51 274 11 81 7 183 -9 203 -5 7
-17 37 -27 67 -26 79 -43 112 -77 139 -24 19 -27 25 -16 38 21 26 13 121 -18
203 -22 60 -28 93 -29 167 -2 81 -5 97 -27 130 -14 21 -29 49 -33 63 -4 13
-32 48 -61 78 -30 29 -54 57 -54 63 0 6 -14 15 -30 21 -22 7 -29 15 -26 27 20
65 46 200 46 240 0 56 -32 185 -52 209 -8 9 -19 30 -26 45 -17 39 -164 177
-215 202 -40 19 -42 22 -41 65 1 27 -4 49 -12 55 -8 5 -23 41 -34 78 -23 84
-60 148 -103 181 -17 14 -63 54 -102 90 -38 36 -74 66 -78 66 -5 0 -20 8 -33
19 -13 10 -56 29 -96 41 -130 40 -158 51 -168 69 -5 10 -37 38 -70 62 -34 24
-86 62 -115 85 -46 34 -68 43 -147 59 -87 17 -98 17 -158 3 -36 -9 -79 -22
-96 -29 -29 -11 -37 -9 -110 27 -76 38 -82 39 -179 39 -85 -1 -110 -5 -168
-28 -71 -29 -121 -34 -133 -15 -4 6 -10 25 -13 42 l-7 30 -16 -35z m433 -65
c30 -9 60 -22 68 -29 20 -20 4 -37 -30 -30 -15 4 -67 -2 -114 -11 -78 -17 -89
-17 -113 -3 -29 16 -40 45 -24 61 9 9 84 25 133 27 14 0 50 -6 80 -15z m420
-54 c10 -6 19 -17 19 -24 0 -28 -107 -100 -134 -90 -19 7 -46 54 -46 79 0 34
116 59 161 35z m-711 -55 c9 -11 7 -16 -10 -25 -22 -12 -60 -5 -60 10 0 5 -7
7 -15 4 -14 -6 -21 7 -11 17 12 11 85 7 96 -6z m-225 -44 c-7 -23 -45 -29 -45
-8 0 13 40 39 48 32 2 -2 1 -13 -3 -24z m1068 -55 c39 -30 12 -56 -78 -76 -98
-22 -138 17 -68 65 42 28 115 34 146 11z m424 -92 c70 -23 123 -63 142 -106 9
-20 31 -47 50 -60 38 -27 88 -112 97 -167 9 -55 -12 -58 -105 -16 -153 71
-144 64 -201 167 -11 21 -20 48 -20 60 0 13 -9 38 -20 56 -20 33 -26 63 -13
75 9 10 17 9 70 -9z m-284 -71 c25 -12 27 -18 27 -75 0 -76 -28 -129 -63 -120
-46 11 -67 34 -83 91 -9 31 -20 60 -25 65 -5 6 -23 -1 -46 -17 -42 -30 -63
-23 -63 23 0 25 15 39 60 53 27 9 164 -5 193 -20z m-2572 -59 c11 -14 10 -18
-6 -30 -10 -8 -24 -14 -31 -14 -18 0 -35 26 -28 44 8 21 48 21 65 0z m2672
-124 c-3 -11 -12 -20 -19 -20 -12 0 -12 4 -2 20 7 11 16 20 19 20 4 0 5 -9 2
-20z m421 -212 c-7 -10 -53 -2 -68 12 -5 5 -6 16 -3 24 6 14 11 13 42 -5 19
-12 32 -25 29 -31z m-3819 2 c3 -5 19 -10 34 -10 15 0 36 -9 46 -20 24 -27 45
-26 38 1 -6 20 -3 21 23 15 45 -11 59 -29 39 -50 -9 -9 -24 -16 -32 -16 -25 0
-53 -30 -53 -57 0 -37 -34 -28 -73 20 -19 23 -40 52 -46 65 -18 35 4 84 24 52z
m3675 -21 c0 -20 -15 -26 -24 -10 -8 13 4 42 15 35 5 -3 9 -14 9 -25z m-3322
-132 c15 -24 15 -28 1 -42 -14 -14 -20 -14 -62 2 -26 9 -47 23 -47 29 0 12 68
45 83 41 5 -2 16 -15 25 -30z m3711 -22 c29 -34 31 -41 33 -125 1 -50 2 -101
2 -115 1 -14 -3 -26 -9 -26 -26 -4 -95 170 -95 238 0 76 20 84 69 28z m151
-126 c47 -69 46 -66 64 -130 28 -96 16 -252 -20 -266 -8 -3 -26 2 -40 12 -25
16 -25 20 -23 103 3 90 -8 229 -20 247 -7 12 -8 85 -1 85 3 0 21 -23 40 -51z
m-4070 -54 c0 -8 -9 -15 -20 -15 -20 0 -26 11 -13 23 12 13 33 7 33 -8z m-13
-180 c2 -6 -6 -16 -18 -23 -25 -16 -45 -3 -35 23 6 18 47 17 53 0z m2753 -270
c0 -22 76 -21 84 1 5 14 9 14 22 3 15 -12 14 -15 -5 -30 l-21 -17 27 -6 c16
-3 54 -4 86 -2 31 2 60 0 63 -5 3 -5 0 -9 -5 -9 -6 0 -11 -13 -11 -30 0 -28 3
-30 38 -31 20 -1 46 -1 57 0 11 0 31 -13 44 -30 22 -29 23 -31 6 -49 -13 -14
-25 -18 -44 -13 -29 7 -23 -4 11 -21 12 -6 28 -23 35 -36 l13 -25 1 30 c1 25
3 26 6 7 3 -13 -1 -30 -7 -37 -24 -28 -4 -45 43 -39 42 6 44 5 49 -20 4 -20 2
-26 -8 -22 -8 3 -14 3 -14 -1 0 -14 46 -81 77 -109 18 -18 33 -39 33 -49 0 -9
13 -43 30 -74 16 -31 31 -65 33 -76 1 -11 10 -31 20 -45 9 -13 17 -28 17 -33
0 -13 139 -150 167 -164 14 -7 36 -13 49 -13 12 0 26 -4 29 -10 3 -5 17 -10
31 -10 17 0 30 -9 42 -30 9 -16 21 -30 26 -30 16 0 35 -34 36 -62 0 -15 5 -30
11 -33 6 -4 8 -14 5 -22 -4 -9 4 -23 19 -35 14 -11 25 -30 25 -42 0 -14 10
-28 25 -36 18 -10 23 -19 19 -35 -3 -13 3 -37 15 -59 12 -20 21 -47 21 -59 0
-20 -5 -22 -47 -20 -27 0 -138 4 -248 8 -296 10 -515 12 -555 4 -19 -5 -80
-10 -135 -12 -97 -4 -286 -32 -430 -62 -38 -9 -105 -20 -149 -25 -43 -6 -83
-13 -89 -17 -6 -3 -32 -5 -59 -4 -26 1 -48 -2 -48 -7 0 -8 -63 -42 -80 -42 -5
0 -20 -11 -32 -23 -19 -19 -39 -25 -97 -30 -40 -3 -79 -11 -87 -18 -7 -6 -43
-13 -78 -15 -49 -4 -68 -1 -80 11 -9 9 -21 13 -27 9 -18 -11 -122 -13 -141 -3
-13 7 -23 4 -36 -9 -14 -14 -23 -16 -38 -8 -10 6 -21 14 -24 18 -3 4 -20 0
-39 -9 -21 -11 -35 -13 -39 -6 -4 6 -17 14 -30 18 -14 4 -21 12 -18 20 6 16
-15 25 -42 19 -10 -3 -26 2 -35 10 -8 9 -18 16 -21 16 -3 0 -15 9 -26 20 -11
11 -31 20 -45 20 -29 0 -52 33 -127 180 l-49 95 35 33 c33 29 41 32 102 32
114 0 213 60 241 144 10 33 -2 157 -18 188 -6 11 -13 31 -15 45 -3 14 -6 30
-7 36 -1 6 -10 19 -19 29 -21 21 -22 32 -5 50 6 7 12 24 12 37 0 19 8 27 40
37 22 6 32 12 23 13 -21 1 -13 31 8 31 9 0 14 12 14 36 0 31 3 35 20 29 16 -5
20 -2 20 19 0 35 53 92 92 100 24 5 47 -1 94 -24 35 -16 68 -30 73 -30 6 0 30
-9 54 -20 63 -30 174 -43 210 -25 16 8 45 17 66 21 48 8 94 29 112 51 27 34
39 62 32 79 -4 12 -3 15 5 10 7 -4 12 -1 12 8 0 8 9 21 21 30 15 10 19 20 14
36 -7 23 8 52 55 100 31 32 60 39 60 15 0 -8 -5 -15 -11 -15 -6 0 -9 -6 -6
-12 2 -7 11 -12 21 -10 9 2 16 -1 16 -6 0 -6 12 -17 26 -27 20 -13 28 -14 40
-4 15 13 19 69 5 85 -4 5 -11 20 -14 34 -5 20 -1 27 20 38 15 6 35 12 45 12
10 0 18 5 18 11 0 8 17 10 53 6 64 -6 88 3 68 27 -16 19 -1 22 28 7 12 -7 26
-4 47 9 36 23 44 24 44 5z m-2966 -274 c3 -5 -1 -14 -9 -21 -13 -10 -15 -9
-15 9 0 21 14 28 24 12z m-44 -128 c0 -23 -67 -76 -86 -69 -27 10 -16 51 19
68 44 21 67 22 67 1z m3735 -153 c3 -5 16 -10 29 -10 34 0 46 -19 46 -77 0
-45 -3 -53 -19 -53 -26 0 -69 60 -77 109 -6 39 5 56 21 31z m-2431 -55 c3 -8
1 -15 -4 -15 -6 0 -10 7 -10 15 0 8 2 15 4 15 2 0 6 -7 10 -15z m-46 -92 c16
-16 16 -16 -1 -10 -10 4 -23 7 -28 7 -6 0 -7 5 -4 10 9 14 14 13 33 -7z m2643
-24 c-16 -15 -26 -18 -33 -11 -15 15 -4 27 28 30 l28 2 -23 -21z m-2411 -210
c0 -15 8 -34 18 -41 44 -31 33 -94 -18 -105 -17 -3 -33 -10 -36 -14 -8 -14
-44 -11 -84 7 -28 13 -36 21 -33 35 5 20 13 22 49 20 15 -2 23 5 28 21 8 33 8
38 -6 36 -18 -4 -22 39 -6 56 7 7 24 26 36 41 l24 27 14 -27 c8 -15 14 -40 14
-56z m-1620 -14 c0 -18 -5 -25 -20 -25 -24 0 -26 13 -4 34 21 21 24 20 24 -9z
m130 -95 c0 -5 -7 -10 -15 -10 -8 0 -15 5 -15 10 0 6 7 10 15 10 8 0 15 -4 15
-10z m-21 -78 c-30 -21 -9 -36 26 -18 27 14 55 12 55 -4 0 -16 -42 -80 -52
-80 -23 0 -49 23 -63 57 -19 44 -19 38 7 62 16 16 25 18 35 9 11 -9 10 -13 -8
-26z m1256 -72 c-3 -5 -10 -10 -16 -10 -5 0 -9 5 -9 10 0 6 7 10 16 10 8 0 12
-4 9 -10z m-1115 -28 c0 -23 -19 -42 -41 -42 -27 0 -33 19 -13 41 22 24 54 25
54 1z m885 -92 c0 -7 -6 -15 -12 -17 -8 -3 -13 4 -13 17 0 13 5 20 13 18 6 -3
12 -11 12 -18z m-45 -56 c0 -13 -6 -24 -13 -24 -9 0 -12 10 -9 30 5 35 22 30
22 -6z m238 20 c12 -8 22 -24 22 -34 0 -10 7 -25 15 -33 17 -17 46 -97 39
-108 -2 -4 -27 -10 -54 -14 -28 -4 -50 -11 -50 -16 0 -15 -50 -10 -56 6 -3 8
-14 17 -25 20 -10 4 -19 13 -19 21 0 14 -16 18 -52 15 -35 -4 -16 25 38 59 30
19 64 50 75 68 23 36 35 39 67 16z m-118 -198 c0 -2 -7 -6 -15 -10 -8 -3 -15
-1 -15 4 0 6 7 10 15 10 8 0 15 -2 15 -4z m2814 -31 c78 -7 187 -35 207 -51 8
-8 20 -14 25 -14 16 0 58 -51 83 -101 40 -81 13 -123 -49 -79 -16 12 -30 17
-30 11 0 -6 -11 -11 -25 -11 -20 0 -25 5 -25 24 0 24 -21 36 -67 36 -13 0 -23
5 -23 10 0 6 -6 10 -14 10 -7 0 -19 7 -26 15 -7 8 -23 15 -36 15 -13 0 -24 4
-24 9 0 5 -19 14 -42 20 -83 19 -140 44 -155 67 -8 13 -22 24 -29 24 -8 0 -14
4 -14 10 0 5 26 11 58 12 58 4 83 3 186 -7z m-389 -4 c3 -5 1 -12 -5 -16 -5
-3 -10 1 -10 9 0 18 6 21 15 7z m-190 -11 c-3 -5 -15 -10 -26 -10 -11 0 -17 5
-14 10 3 6 15 10 26 10 11 0 17 -4 14 -10z m1235 -121 c0 -11 9 -29 20 -41 13
-14 20 -36 20 -60 0 -45 -11 -49 -31 -10 -8 15 -20 32 -27 38 -10 7 -12 23 -7
57 7 45 25 57 25 16z m-1920 -34 c0 -8 -8 -19 -17 -25 -17 -10 -16 -12 5 -26
17 -13 22 -26 22 -60 0 -32 -4 -44 -15 -44 -11 0 -15 12 -16 48 -1 46 -1 46
-10 14 -11 -38 1 -67 32 -77 16 -6 19 -12 14 -33 -6 -25 -16 -36 -63 -69 -13
-9 -21 -22 -18 -29 3 -8 -1 -14 -8 -14 -28 0 -30 82 -7 220 5 33 5 59 0 66
-11 13 5 28 42 42 27 11 39 7 39 -13z m-1365 -135 c1 -11 -2 -20 -7 -20 -4 0
-8 12 -8 27 0 30 13 24 15 -7z m-1039 -12 c4 -6 7 -32 6 -57 0 -34 -6 -50 -22
-63 l-21 -17 21 -11 c19 -10 20 -18 18 -123 l-3 -112 -37 -3 c-47 -4 -99 30
-180 116 -31 33 -71 68 -88 77 l-31 16 18 32 c28 48 122 106 216 132 99 28 94
28 103 13z m3005 -18 c10 -6 19 -20 19 -30 0 -26 22 -26 45 0 25 28 35 25 35
-10 0 -16 -5 -30 -10 -30 -6 0 -5 -8 2 -20 17 -26 10 -30 -58 -35 -69 -5 -106
13 -84 40 10 12 10 15 -1 15 -10 1 -8 5 5 15 10 7 15 19 11 25 -7 12 0 40 10
40 4 0 15 -5 26 -10z m999 0 c0 -5 -9 -10 -20 -10 -11 0 -20 5 -20 10 0 6 9
10 20 10 11 0 20 -4 20 -10z m220 -60 c0 -5 -5 -10 -11 -10 -5 0 -7 5 -4 10 3
6 8 10 11 10 2 0 4 -4 4 -10z m-197 -112 c-6 -7 -13 -23 -17 -34 -6 -19 -2
-22 41 -27 45 -5 93 8 93 25 0 4 9 8 20 8 13 0 17 -5 14 -14 -3 -9 3 -17 15
-21 12 -3 21 -10 21 -15 0 -5 7 -7 15 -4 10 4 15 0 15 -11 0 -11 5 -15 15 -11
10 3 17 -3 21 -19 3 -14 10 -25 15 -25 5 0 9 -24 9 -53 0 -30 7 -98 15 -153
18 -118 20 -326 4 -356 -6 -12 -13 -42 -15 -67 -2 -25 -8 -57 -13 -71 -5 -14
-14 -44 -20 -67 -10 -35 -16 -43 -35 -43 -13 0 -35 -9 -49 -20 -14 -11 -30
-20 -36 -20 -6 0 -11 -4 -11 -9 0 -4 -24 -8 -53 -8 -29 0 -64 -6 -77 -14 -14
-7 -30 -14 -35 -15 -6 -1 -34 -16 -62 -33 -27 -17 -55 -31 -61 -31 -7 0 -19
-11 -28 -26 -10 -15 -25 -24 -38 -23 -42 3 -48 0 -41 -23 3 -13 3 -18 -2 -13
-4 6 -44 11 -88 11 -80 0 -165 23 -222 60 -12 8 -46 23 -75 35 -28 11 -66 36
-84 55 -37 39 -37 39 -64 22 -17 -11 -22 -10 -29 0 -8 13 -125 72 -143 72 -19
0 -78 50 -78 66 0 7 -5 14 -12 14 -6 0 -27 12 -46 27 -20 15 -47 28 -60 29
-14 2 -34 12 -46 23 -12 12 -29 21 -38 21 -23 0 -128 79 -129 98 0 11 -2 13
-6 4 -4 -10 -8 -10 -19 -1 -21 18 -17 27 16 34 26 6 30 11 30 41 0 55 -13 71
-54 66 -32 -4 -53 -22 -24 -22 6 0 4 -7 -5 -18 -10 -10 -17 -28 -17 -40 0 -23
-6 -23 -70 6 -39 17 -98 62 -81 62 17 0 13 30 -4 36 -19 8 -19 21 0 40 9 9 13
28 11 47 -2 18 1 38 7 45 7 9 7 20 -1 37 -9 19 -8 26 5 37 17 13 71 12 89 -3
7 -6 15 0 24 16 11 20 21 25 50 25 34 0 37 -2 38 -30 1 -26 -4 -31 -39 -40
-22 -6 -39 -17 -39 -25 0 -20 19 -29 34 -16 7 6 33 8 63 5 46 -6 52 -4 76 22
23 24 33 28 73 25 31 -2 44 1 40 8 -4 7 1 11 14 11 12 0 25 -10 32 -25 13 -28
14 -29 55 -14 24 8 39 7 67 -5 20 -8 75 -18 123 -21 49 -4 103 -11 121 -15 22
-6 41 -4 59 5 14 7 48 16 74 20 38 5 49 11 49 25 0 26 36 35 56 15 11 -11 33
-15 73 -14 46 1 120 -5 141 -10 3 -1 -3 -6 -12 -12 -26 -15 -22 -27 12 -34 17
-4 30 -11 30 -16 0 -6 5 -7 10 -4 6 3 10 1 10 -4 0 -6 6 -11 14 -11 20 0 20
86 0 94 -12 5 -12 8 3 26 16 19 18 19 25 3 6 -14 7 -13 6 7 -2 40 12 60 41 60
15 0 31 8 39 20 16 26 30 25 35 -2 3 -20 6 -18 21 15 11 26 22 37 34 35 23 -5
57 38 44 55 -9 11 -9 26 -4 112 2 27 3 28 19 13 12 -12 13 -21 6 -30z m192 2
c3 -5 -1 -10 -10 -10 -9 0 -13 5 -10 10 3 6 8 10 10 10 2 0 7 -4 10 -10z
m-2426 -81 c39 -3 44 -7 62 -43 10 -22 19 -47 19 -55 0 -9 6 -28 14 -43 12
-23 12 -27 -1 -32 -39 -16 -155 -1 -209 25 -24 12 -30 59 -8 59 9 0 14 12 14
33 0 25 7 36 27 49 15 9 30 15 33 13 4 -2 26 -5 49 -6z m508 -356 c-3 -10 -5
-2 -5 17 0 19 2 27 5 18 2 -10 2 -26 0 -35z m-1757 -133 c0 -5 -4 -10 -10 -10
-5 0 -10 5 -10 10 0 6 5 10 10 10 6 0 10 -4 10 -10z m2077 -13 c-6 -20 -27
-19 -27 2 0 14 5 19 15 14 9 -3 14 -10 12 -16z m-1550 -22 c-7 -14 -18 -25
-25 -25 -7 0 -11 3 -9 8 2 4 7 15 10 25 4 9 13 17 21 17 11 0 12 -5 3 -25z
m-47 -10 c0 -8 -7 -15 -15 -15 -13 0 -14 3 -3 15 16 18 18 18 18 0z m2815
-3564 c3 -5 1 -12 -5 -16 -5 -3 -10 1 -10 9 0 18 6 21 15 7z m-135 -26 c0 -8
-4 -15 -10 -15 -5 0 -10 7 -10 15 0 8 5 15 10 15 6 0 10 -7 10 -15z m27 -74
c-18 -23 -30 -31 -49 -31 -24 0 -23 15 3 52 20 28 22 28 40 12 16 -14 17 -20
6 -33z m-147 -21 c0 -5 -8 -10 -17 -10 -15 0 -16 2 -3 10 19 12 20 12 20 0z"/>
<path d="M5100 10131 c0 -6 5 -13 10 -16 6 -3 10 1 10 9 0 9 -4 16 -10 16 -5
0 -10 -4 -10 -9z"/>
<path d="M5620 10020 c29 -22 43 -25 38 -8 -3 7 -18 15 -34 20 l-29 7 25 -19z"/>
<path d="M4871 10001 c-8 -5 -9 -11 -3 -15 5 -3 12 1 16 9 6 17 6 18 -13 6z"/>
<path d="M3480 8709 c0 -5 5 -7 10 -4 6 3 10 8 10 11 0 2 -4 4 -10 4 -5 0 -10
-5 -10 -11z"/>
<path d="M4920 8270 c0 -5 5 -10 10 -10 6 0 10 5 10 10 0 6 -4 10 -10 10 -5 0
-10 -4 -10 -10z"/>
<path d="M5105 7750 c4 -6 11 -8 16 -5 14 9 11 15 -7 15 -8 0 -12 -5 -9 -10z"/>
<path d="M6290 7711 c0 -5 5 -13 10 -16 6 -3 10 -2 10 4 0 5 -4 13 -10 16 -5
3 -10 2 -10 -4z"/>
<path d="M6355 7707 c-4 -10 -5 -21 -1 -24 10 -10 18 4 13 24 -4 17 -4 17 -12
0z"/>
<path d="M6250 7695 c0 -8 2 -15 4 -15 2 0 6 7 10 15 3 8 1 15 -4 15 -6 0 -10
-7 -10 -15z"/>
<path d="M6233 7645 c-8 -21 -2 -24 25 -14 13 5 20 13 17 19 -9 15 -35 12 -42
-5z"/>
<path d="M5271 7574 c0 -11 3 -14 6 -6 3 7 2 16 -1 19 -3 4 -6 -2 -5 -13z"/>
<path d="M5510 7383 c0 -17 6 -23 23 -23 16 0 18 3 8 9 -7 5 -17 15 -22 22 -6
10 -9 8 -9 -8z"/>
<path d="M5602 7343 c-1 -16 -8 -23 -22 -23 -11 0 -20 -4 -20 -10 0 -5 9 -10
20 -10 11 0 20 -4 20 -10 0 -5 7 -10 15 -10 8 0 15 5 15 10 0 6 -4 10 -9 10
-6 0 -12 15 -14 33 -2 19 -4 23 -5 10z"/>
<path d="M5493 7328 c2 -7 9 -13 15 -13 5 0 14 -3 18 -7 17 -18 26 -6 9 12
-20 22 -49 27 -42 8z"/>
<path d="M5540 7330 c0 -5 5 -10 10 -10 6 0 10 5 10 10 0 6 -4 10 -10 10 -5 0
-10 -4 -10 -10z"/>
<path d="M6808 7203 c7 -3 16 -2 19 1 4 3 -2 6 -13 5 -11 0 -14 -3 -6 -6z"/>
<path d="M5785 7180 c-3 -5 -1 -10 4 -10 6 0 11 5 11 10 0 6 -2 10 -4 10 -3 0
-8 -4 -11 -10z"/>
<path d="M5919 7153 c0 -4 -2 -18 -5 -30 -3 -16 1 -23 11 -23 17 0 21 45 5 55
-5 3 -10 3 -11 -2z"/>
<path d="M2510 11285 c-19 -23 -4 -30 33 -17 19 7 42 12 53 12 16 0 17 2 4 10
-23 15 -76 12 -90 -5z"/>
<path d="M2302 10230 c-23 -17 -49 -30 -57 -30 -20 0 -19 -19 0 -26 23 -9 105
51 105 78 0 11 1 11 -48 -22z"/>
<path d="M9440 7845 c-52 -8 -156 -21 -230 -30 -74 -9 -183 -23 -242 -31 -59
-8 -140 -19 -180 -24 -40 -4 -152 -20 -248 -34 -155 -23 -283 -40 -485 -65
-33 -5 -112 -13 -175 -20 -63 -7 -149 -18 -190 -26 -41 -8 -109 -19 -150 -25
-116 -18 -114 -17 -134 -107 -10 -43 -20 -95 -23 -116 -3 -20 -9 -40 -14 -43
-5 -3 -9 -14 -9 -25 0 -10 -4 -19 -9 -19 -12 0 -22 -45 -15 -64 3 -9 14 -16
24 -16 11 0 21 -4 24 -9 3 -4 24 -11 46 -15 22 -3 40 -12 40 -19 0 -23 -16
-38 -34 -31 -14 5 -17 2 -14 -15 1 -12 7 -21 12 -21 5 1 13 -6 18 -15 6 -10
16 -14 29 -10 13 4 19 2 19 -9 0 -9 5 -16 10 -16 6 0 10 -7 10 -15 0 -16 0
-16 225 11 125 15 204 23 530 59 83 9 186 21 230 26 105 12 366 39 430 44 28
2 93 9 145 15 52 6 138 15 190 20 143 15 282 31 308 36 l22 4 0 310 0 310 -32
-1 c-18 -1 -76 -7 -128 -14z m-1920 -725 c0 -22 -16 -26 -40 -10 -13 8 -12 10
3 10 9 0 17 5 17 10 0 6 5 10 10 10 6 0 10 -9 10 -20z"/>
<path d="M7233 7662 c-28 -15 -60 -35 -70 -44 -11 -10 -24 -18 -29 -18 -5 0
-17 -12 -27 -25 -18 -25 -18 -25 5 -34 17 -7 24 -18 26 -42 4 -61 25 -139 37
-139 13 0 14 -7 19 -127 1 -40 5 -75 8 -78 8 -8 98 118 98 137 0 10 9 44 19
75 10 32 25 79 32 106 7 26 16 47 20 47 4 0 5 8 2 19 -2 10 0 34 5 53 11 42 2
62 -38 83 -38 19 -45 18 -107 -13z m-26 -294 c-3 -7 -5 -2 -5 12 0 14 2 19 5
13 2 -7 2 -19 0 -25z m13 -42 c0 -8 -4 -18 -10 -21 -5 -3 -10 3 -10 14 0 12 5
21 10 21 6 0 10 -6 10 -14z"/>
<path d="M3150 7505 c0 -8 5 -15 10 -15 6 0 10 7 10 15 0 8 -4 15 -10 15 -5 0
-10 -7 -10 -15z"/>
<path d="M3230 7450 c0 -5 9 -10 21 -10 11 0 17 5 14 10 -3 6 -13 10 -21 10
-8 0 -14 -4 -14 -10z"/>
<path d="M3440 7429 c0 -5 5 -7 10 -4 6 3 10 8 10 11 0 2 -4 4 -10 4 -5 0 -10
-5 -10 -11z"/>
<path d="M3330 7390 c0 -5 5 -10 10 -10 6 0 10 5 10 10 0 6 -4 10 -10 10 -5 0
-10 -4 -10 -10z"/>
<path d="M7340 7160 c0 -5 5 -10 10 -10 6 0 10 5 10 10 0 6 -4 10 -10 10 -5 0
-10 -4 -10 -10z"/>
<path d="M3040 7150 c0 -5 5 -10 10 -10 6 0 10 5 10 10 0 6 -4 10 -10 10 -5 0
-10 -4 -10 -10z"/>
<path d="M7356 7075 c-4 -12 -1 -16 11 -13 18 3 21 20 5 26 -5 1 -12 -4 -16
-13z"/>
<path d="M7440 7050 c0 -5 -6 -10 -14 -10 -7 0 -16 -9 -19 -21 -5 -18 -2 -20
21 -14 42 10 54 24 37 41 -16 16 -25 18 -25 4z"/>
<path d="M9560 6527 c-19 -12 -41 -27 -48 -34 -8 -8 -28 -20 -45 -27 -18 -7
-47 -27 -64 -43 -18 -17 -48 -34 -68 -37 -19 -4 -35 -11 -35 -16 0 -6 -6 -10
-14 -10 -8 0 -21 -6 -28 -14 -8 -7 -29 -21 -47 -31 -26 -13 -31 -19 -20 -26
10 -6 9 -8 -6 -7 -28 1 -65 -16 -99 -46 -16 -14 -37 -26 -47 -26 -10 0 -21 -5
-25 -12 -5 -8 -2 -9 9 -5 10 3 17 2 17 -3 0 -6 8 -2 18 8 42 39 62 51 77 46 8
-4 15 -1 15 5 0 6 8 11 18 10 9 0 12 -3 5 -5 -8 -4 -7 -11 4 -24 9 -10 20 -17
25 -14 19 12 19 -28 1 -44 -11 -9 -20 -28 -19 -42 1 -19 -4 -25 -19 -25 -27 0
-45 -13 -45 -32 0 -12 3 -13 15 -3 8 6 22 10 32 7 16 -4 15 -6 -5 -12 -29 -10
-25 -39 6 -43 32 -5 23 -25 -16 -37 -40 -12 -41 -21 -1 -29 45 -9 49 -8 49 9
0 8 9 15 19 15 16 0 20 -11 28 -72 11 -86 3 -107 -33 -83 -37 24 -57 18 -76
-23 -13 -29 -15 -46 -8 -77 6 -25 6 -41 0 -43 -6 -2 0 -12 12 -23 l23 -19 -22
-19 c-31 -26 -29 -33 17 -54 47 -22 53 -47 13 -47 -21 0 -24 -3 -14 -9 8 -5
21 -7 29 -4 12 5 12 2 2 -18 -10 -17 -10 -24 -1 -27 6 -2 11 -9 11 -16 0 -9 9
-12 25 -8 29 5 31 -4 11 -43 -15 -29 -8 -61 22 -97 13 -16 13 -18 -1 -18 -21
0 -57 35 -57 54 0 25 -12 46 -26 46 -17 0 -17 -8 1 -40 13 -24 12 -26 -23 -42
l-37 -17 31 0 c19 -1 34 -7 38 -17 9 -24 8 -25 -18 -18 -17 4 -28 0 -39 -16
-20 -29 -41 -16 -33 21 4 21 2 29 -8 29 -19 0 -29 -30 -15 -46 6 -7 8 -23 4
-36 -6 -19 -5 -21 6 -10 14 13 89 17 89 4 0 -5 11 -14 25 -20 15 -7 25 -20 25
-32 0 -13 7 -20 20 -20 25 0 26 -15 3 -30 -17 -9 -17 -11 0 -21 14 -8 17 -18
12 -36 -4 -19 0 -31 15 -45 19 -17 21 -18 27 -2 3 9 1 25 -5 35 -18 29 -14 49
9 49 19 0 21 -4 15 -44 -5 -32 -3 -48 8 -59 18 -18 11 -27 -21 -27 -12 0 -23
-4 -23 -9 0 -5 18 -7 40 -4 44 6 52 -6 19 -28 -19 -13 -19 -15 -3 -48 12 -24
19 -29 25 -20 6 11 9 10 15 -4 3 -9 14 -17 23 -17 9 0 23 -5 31 -11 12 -8 10
-10 -10 -6 -14 2 -33 8 -42 12 -14 5 -18 2 -18 -14 0 -12 6 -21 13 -21 6 0 35
-12 62 -25 28 -14 58 -25 68 -25 10 0 17 -8 17 -19 0 -14 -5 -18 -20 -14 -15
4 -20 0 -20 -15 0 -12 9 -26 20 -32 16 -9 20 -8 20 5 0 19 7 19 27 -1 14 -14
14 -16 -6 -21 -14 -3 -21 -13 -21 -29 0 -13 4 -24 8 -24 5 0 8 -19 7 -42 -1
-24 3 -49 8 -55 13 -18 44 -16 51 2 5 15 9 2076 4 2074 -2 0 -19 -10 -38 -22z
m-273 -239 c-3 -8 -6 -5 -6 6 -1 11 2 17 5 13 3 -3 4 -12 1 -19z m27 -59 c-8
-13 -21 -11 -27 5 -4 10 0 12 14 9 10 -3 16 -9 13 -14z m-54 -4 c0 -8 -7 -15
-15 -15 -8 0 -15 7 -15 15 0 8 7 15 15 15 8 0 15 -7 15 -15z m10 -50 c0 -9 -9
-15 -21 -15 -18 0 -19 2 -9 15 7 8 16 15 21 15 5 0 9 -7 9 -15z m-40 -55 c0
-11 -7 -20 -15 -20 -8 0 -15 9 -15 20 0 11 7 20 15 20 8 0 15 -9 15 -20z m40
-44 c0 -3 -4 -8 -10 -11 -5 -3 -10 -1 -10 4 0 6 5 11 10 11 6 0 10 -2 10 -4z
m-31 -61 c6 3 18 0 26 -9 20 -20 19 -26 -5 -26 -11 0 -20 5 -20 10 0 6 -9 10
-20 10 -11 0 -20 2 -20 4 0 2 -3 13 -7 23 -6 17 -6 17 15 0 11 -11 26 -16 31
-12z m62 -95 c6 0 7 -4 4 -10 -13 -21 -25 -9 -24 23 1 23 3 26 6 10 2 -13 9
-23 14 -23z m-117 -106 c9 -3 16 -15 16 -25 0 -16 3 -18 19 -10 14 8 22 7 31
-4 11 -13 7 -15 -21 -15 l-34 0 4 -51 c3 -47 2 -50 -16 -39 -16 10 -19 25 -20
81 -1 38 0 69 2 69 2 0 10 -3 19 -6z m116 -33 c0 -6 -4 -13 -10 -16 -5 -3 -10
1 -10 9 0 9 5 16 10 16 6 0 10 -4 10 -9z m-45 -51 c14 -16 16 -23 7 -32 -10
-10 -17 -7 -33 9 -12 11 -18 26 -15 32 10 16 21 14 41 -9z m5 -65 c0 -8 5 -15
10 -15 6 0 10 -7 10 -15 0 -13 -3 -13 -20 -3 -25 16 -54 1 -58 -31 -2 -15 -11
-21 -27 -21 -31 0 -42 18 -13 22 13 2 27 13 33 26 5 12 13 22 17 22 5 0 8 7 8
15 0 8 9 15 20 15 11 0 20 -7 20 -15z m20 -290 c0 -8 6 -15 13 -15 6 0 4 -5
-7 -11 -14 -9 -20 -8 -27 2 -13 21 -11 39 6 39 8 0 15 -7 15 -15z m20 -86 c0
-5 -4 -9 -10 -9 -5 0 -10 7 -10 16 0 8 5 12 10 9 6 -3 10 -10 10 -16z m20 -49
c0 -4 -11 -12 -25 -18 -24 -11 -25 -10 -25 18 0 28 1 29 25 18 14 -6 25 -14
25 -18z m40 -80 c0 -5 -18 -10 -40 -10 -22 0 -40 5 -40 10 0 6 18 10 40 10 22
0 40 -4 40 -10z m7 -122 c-3 -8 -6 -5 -6 6 -1 11 2 17 5 13 3 -3 4 -12 1 -19z
m60 -33 c8 -9 12 -19 8 -23 -4 -4 -10 -1 -12 6 -6 15 -40 16 -45 0 -2 -6 -10
-8 -16 -4 -17 10 -15 26 3 20 8 -4 15 -1 15 5 0 16 29 13 47 -4z m-16 -135
c23 0 25 -15 4 -24 -9 -3 -25 4 -37 16 -17 17 -18 20 -4 15 10 -4 26 -7 37 -7z
m109 0 c0 -5 -7 -10 -16 -10 -8 0 -12 5 -9 10 3 6 10 10 16 10 5 0 9 -4 9 -10z
m-20 -49 c0 -18 -17 -20 -36 -6 -18 14 -18 14 9 15 15 0 27 -4 27 -9z m20 -61
c0 -11 -4 -20 -9 -20 -13 0 -32 26 -24 33 13 14 33 6 33 -13z m50 -80 c0 -5
-4 -10 -9 -10 -6 0 -13 5 -16 10 -3 6 1 10 9 10 9 0 16 -4 16 -10z"/>
<path d="M9132 6219 c2 -6 8 -10 13 -10 5 0 11 4 13 10 2 6 -4 11 -13 11 -9 0
-15 -5 -13 -11z"/>
<path d="M9105 6200 c3 -5 8 -10 11 -10 2 0 4 5 4 10 0 6 -5 10 -11 10 -5 0
-7 -4 -4 -10z"/>
<path d="M8975 6180 c-3 -5 -2 -10 4 -10 5 0 13 5 16 10 3 6 2 10 -4 10 -5 0
-13 -4 -16 -10z"/>
<path d="M8940 6155 c-7 -8 -19 -15 -26 -15 -8 0 -14 -4 -14 -9 0 -14 48 0 55
16 8 22 0 26 -15 8z"/>
<path d="M9188 5906 c-24 -17 -23 -38 2 -54 19 -11 20 -10 20 28 0 22 -1 40
-2 40 -2 0 -11 -7 -20 -14z"/>
<path d="M2185 5770 c-4 -6 -3 -16 3 -22 13 -13 23 4 13 21 -7 10 -10 10 -16
1z"/>
<path d="M9106 5651 c-4 -7 -5 -15 -2 -18 9 -9 19 4 14 18 -4 11 -6 11 -12 0z"/>
<path d="M2145 5621 c-3 -5 -1 -12 5 -16 5 -3 10 1 10 9 0 18 -6 21 -15 7z"/>
<path d="M9040 5610 c0 -5 5 -10 10 -10 6 0 10 5 10 10 0 6 -4 10 -10 10 -5 0
-10 -4 -10 -10z"/>
<path d="M2130 5590 c0 -5 5 -10 11 -10 5 0 7 5 4 10 -3 6 -8 10 -11 10 -2 0
-4 -4 -4 -10z"/>
<path d="M9120 5470 c0 -5 5 -10 11 -10 5 0 7 5 4 10 -3 6 -8 10 -11 10 -2 0
-4 -4 -4 -10z"/>
<path d="M9085 5409 c-8 -12 14 -31 30 -26 6 2 10 10 10 18 0 17 -31 24 -40 8z"/>
<path d="M2056 5394 c-5 -14 -4 -15 9 -4 17 14 19 20 6 20 -5 0 -12 -7 -15
-16z"/>
<path d="M1906 5132 c-3 -6 -1 -14 5 -17 14 -9 20 -2 10 14 -6 8 -11 9 -15 3z"/>
<path d="M9050 5130 c-13 -8 -12 -10 3 -10 9 0 17 5 17 10 0 12 -1 12 -20 0z"/>
<path d="M9111 5133 c-1 -7 -8 -13 -16 -13 -8 0 -15 -4 -15 -10 0 -5 -9 -10
-20 -10 -17 0 -20 -7 -20 -50 0 -27 5 -50 10 -50 13 0 30 43 30 76 0 17 5 24
20 24 11 0 20 -4 20 -10 0 -5 18 -10 41 -10 38 0 40 1 37 28 -2 19 -9 28 -25
30 -13 2 -23 -1 -23 -7 0 -15 -27 -14 -33 2 -4 10 -6 10 -6 0z"/>
<path d="M7098 5043 c7 -3 16 -2 19 1 4 3 -2 6 -13 5 -11 0 -14 -3 -6 -6z"/>
<path d="M8295 5040 c-11 -5 -45 -9 -75 -10 -71 -2 -87 -9 -85 -38 1 -17 -5
-26 -22 -33 -20 -7 -23 -15 -23 -63 0 -94 16 -101 390 -190 129 -31 269 -65
311 -77 91 -25 125 -23 121 6 -10 68 -13 80 -23 86 -6 4 -9 11 -6 16 4 5 1 27
-6 48 -17 58 -45 65 -197 49 -191 -19 -187 -20 -195 19 -18 90 -58 178 -73
162 -3 -3 -15 1 -26 8 -30 20 -68 26 -91 17z"/>
<path d="M9183 5030 c-26 -11 -31 -40 -7 -40 27 0 54 20 48 35 -7 17 -10 17
-41 5z"/>
<path d="M7158 4963 c7 -3 16 -2 19 1 4 3 -2 6 -13 5 -11 0 -14 -3 -6 -6z"/>
<path d="M9150 4945 c-15 -9 -19 -14 -10 -15 8 0 25 -3 36 -6 16 -4 23 0 27
15 6 25 -15 28 -53 6z"/>
<path d="M9247 4925 c-22 -46 -21 -54 2 -48 14 3 20 16 23 44 4 48 -3 50 -25
4z"/>
<path d="M9120 4872 c0 -11 51 -35 58 -28 3 3 -1 12 -8 21 -13 16 -50 21 -50
7z"/>
<path d="M9100 4790 c0 -5 5 -10 10 -10 6 0 10 5 10 10 0 6 -4 10 -10 10 -5 0
-10 -4 -10 -10z"/>
<path d="M7245 4760 c-3 -5 -1 -10 4 -10 6 0 11 5 11 10 0 6 -2 10 -4 10 -3 0
-8 -4 -11 -10z"/>
<path d="M9376 4723 c6 -2 19 -22 29 -43 10 -22 22 -40 27 -40 13 0 10 -44 -4
-59 -11 -11 -10 -14 0 -18 6 -3 10 -9 6 -14 -8 -13 5 -11 20 4 12 12 17 87 6
87 -3 0 -4 18 -2 40 4 34 1 40 -16 40 -11 0 -32 2 -48 4 -16 2 -24 2 -18 -1z"/>
<path d="M7216 4693 c-6 -14 -5 -15 5 -6 7 7 10 15 7 18 -3 3 -9 -2 -12 -12z"/>
<path d="M7141 4616 c-12 -13 -19 -26 -14 -29 9 -6 53 35 53 48 0 11 -16 3
-39 -19z"/>
<path d="M9200 4571 c0 -9 30 -24 36 -18 2 1 -6 8 -16 15 -11 7 -20 8 -20 3z"/>
<path d="M9512 4535 c0 -16 2 -22 5 -12 2 9 2 23 0 30 -3 6 -5 -1 -5 -18z"/>
<path d="M7071 4514 c-13 -13 -19 -24 -14 -24 12 0 48 38 42 44 -2 3 -15 -6
-28 -20z"/>
<path d="M7000 4449 c0 -18 2 -19 15 -9 15 12 12 30 -6 30 -5 0 -9 -10 -9 -21z"/>
<path d="M6965 4420 c3 -5 10 -10 16 -10 5 0 9 5 9 10 0 6 -7 10 -16 10 -8 0
-12 -4 -9 -10z"/>
<path d="M6940 4389 c-15 -28 -7 -34 14 -10 11 12 13 21 7 25 -5 4 -15 -3 -21
-15z"/>
<path d="M6891 4346 c-8 -9 -11 -19 -7 -23 9 -9 29 13 24 27 -2 8 -8 7 -17 -4z"/>
<path d="M6820 4269 c0 -5 5 -7 10 -4 6 3 10 8 10 11 0 2 -4 4 -10 4 -5 0 -10
-5 -10 -11z"/>
<path d="M2495 4030 c-11 -5 -34 -9 -52 -9 -44 -1 -63 -10 -56 -27 4 -10 10
-11 23 -4 25 14 46 13 62 -3 15 -15 79 -43 90 -39 4 1 5 -5 2 -12 -3 -9 3 -17
17 -21 14 -5 25 -3 27 4 4 13 38 15 47 2 3 -5 19 -12 35 -16 17 -4 30 -11 30
-16 0 -5 11 -9 25 -9 14 0 30 -9 37 -19 11 -18 13 -18 24 -3 12 15 16 13 46
-21 18 -20 38 -37 45 -37 6 0 15 -9 18 -20 3 -11 11 -20 16 -20 16 0 10 16
-16 40 -14 13 -25 29 -25 36 0 16 -96 96 -150 124 -25 12 -53 27 -64 32 -10 5
-44 16 -75 24 -31 8 -63 16 -71 19 -8 2 -24 0 -35 -5z"/>
<path d="M1773 3956 c-14 -32 8 -191 30 -217 19 -22 37 -22 47 2 41 89 78 157
98 178 22 24 22 26 6 38 -10 7 -32 13 -48 14 -17 0 -52 2 -77 4 -40 2 -48 -1
-56 -19z"/>
<path d="M3137 3505 c-4 -8 -4 -21 -1 -29 3 -8 0 -17 -5 -21 -6 -3 -9 -10 -7
-14 3 -4 1 -24 -4 -44 -4 -20 -5 -37 -1 -37 9 0 2 -61 -9 -75 -7 -10 -26 -90
-71 -300 -11 -55 -27 -113 -34 -130 -8 -16 -17 -49 -20 -72 -4 -24 -11 -45
-16 -49 -5 -3 -7 -10 -3 -15 3 -5 -1 -28 -9 -52 -8 -23 -25 -76 -37 -117 -37
-123 -44 -145 -52 -155 -4 -5 -8 -18 -8 -28 0 -10 -16 -53 -36 -94 -19 -41
-33 -82 -30 -90 6 -14 -45 -150 -70 -186 -6 -10 -10 -26 -7 -36 3 -11 -3 -24
-15 -32 -19 -14 -34 -47 -37 -84 -1 -11 -11 -22 -25 -25 -13 -3 -26 -12 -28
-19 -3 -10 1 -12 17 -8 25 6 28 -14 5 -37 -21 -22 -32 -20 -55 7 -10 12 -18
16 -19 10 0 -7 -8 -13 -18 -13 -11 0 -26 -8 -36 -18 -16 -18 -14 -20 39 -43
59 -26 68 -36 33 -41 -27 -4 -35 -30 -14 -50 9 -10 11 -20 5 -29 -4 -8 -8 -29
-7 -46 1 -19 -6 -41 -17 -53 -10 -11 -15 -26 -11 -35 5 -14 1 -15 -22 -11 -25
6 -27 4 -28 -30 0 -20 -7 -40 -15 -45 -42 -26 -43 -27 -30 -43 11 -13 11 -16
0 -16 -19 0 -40 15 -38 26 6 32 -5 32 -27 -1 -16 -25 -22 -40 -15 -45 7 -4 2
-15 -14 -30 -26 -25 -32 -46 -15 -52 6 -2 8 -17 4 -35 -6 -28 -10 -32 -30 -27
-14 4 -30 2 -37 -4 -13 -11 -15 -120 -2 -142 5 -8 2 -18 -8 -25 -10 -7 -17
-21 -17 -31 0 -10 -7 -28 -15 -38 -8 -11 -15 -35 -15 -54 0 -19 -5 -52 -11
-73 -10 -30 -9 -42 1 -54 11 -13 10 -19 -7 -38 -14 -15 -23 -43 -28 -89 -5
-54 -10 -67 -26 -71 -10 -3 -19 -12 -19 -21 0 -17 4 -18 55 -20 27 -1 30 -5
33 -37 3 -37 18 -48 63 -49 20 0 33 41 16 52 -8 5 -4 8 11 8 12 0 22 -4 22 -9
0 -15 31 -21 52 -10 13 7 18 17 15 30 -3 12 0 19 10 19 10 0 12 6 8 19 -6 19
26 49 70 65 20 7 20 8 1 21 -15 12 -17 17 -7 29 7 8 10 19 7 24 -3 6 12 7 37
5 39 -5 44 -3 55 21 15 33 15 63 2 71 -8 5 -8 11 -1 19 14 17 -15 43 -52 48
-32 3 -34 -1 30 57 13 11 21 26 19 33 -14 46 -16 68 -4 66 8 -2 13 8 13 25 0
15 -4 27 -9 26 -17 -2 -27 30 -16 51 8 14 8 26 0 40 -7 14 -7 20 0 20 5 0 10
17 10 38 0 23 16 69 40 120 22 46 40 87 40 92 0 5 9 25 20 45 11 20 20 47 20
60 0 14 5 34 10 45 6 11 15 29 20 40 6 11 10 30 10 42 0 13 9 37 20 53 11 17
20 39 20 51 0 11 8 29 18 40 10 11 18 38 19 62 1 24 7 50 14 58 6 7 20 45 30
84 10 39 25 83 33 98 9 15 20 43 25 62 17 60 40 117 61 152 11 18 20 50 20 70
0 23 8 47 23 65 25 31 42 77 52 142 4 25 20 66 36 91 16 26 29 52 29 59 0 6 4
11 9 11 14 0 29 56 36 135 4 39 13 95 22 125 14 55 22 92 27 141 1 14 6 31 10
38 4 7 5 23 2 37 -5 17 -2 24 8 24 8 0 18 17 24 40 7 28 7 40 -1 40 -5 0 -2 9
8 20 17 19 17 21 0 40 -13 15 -16 29 -12 56 4 21 11 40 17 44 7 4 -3 21 -25
43 -41 41 -45 43 -45 23 0 -8 -9 -24 -20 -37 l-20 -24 3 34 c2 35 -16 54 -26
26z m-557 -1764 c0 -6 -4 -13 -10 -16 -5 -3 -10 1 -10 9 0 9 5 16 10 16 6 0
10 -4 10 -9z m45 -31 c3 -5 -1 -10 -9 -10 -9 0 -16 5 -16 10 0 6 4 10 9 10 6
0 13 -4 16 -10z m-225 -420 c0 -5 -4 -10 -10 -10 -5 0 -10 5 -10 10 0 6 5 10
10 10 6 0 10 -4 10 -10z m-80 -590 c0 -17 -3 -19 -19 -10 -27 14 -37 -5 -20
-37 10 -19 11 -28 1 -41 -7 -9 -15 -25 -18 -34 -8 -23 -54 -24 -54 -2 0 9 6
14 13 11 8 -3 17 8 23 29 8 26 8 34 -3 38 -33 13 5 64 50 65 21 1 27 -4 27
-19z"/>
<path d="M4000 3285 c0 -11 10 -15 33 -14 23 1 26 3 10 6 -13 2 -23 9 -23 14
0 5 -4 9 -10 9 -5 0 -10 -7 -10 -15z"/>
<path d="M4490 2860 c0 -15 5 -20 18 -18 9 2 17 10 17 18 0 8 -8 16 -17 18
-13 2 -18 -3 -18 -18z"/>
<path d="M4300 2790 c0 -5 5 -10 10 -10 18 0 10 -21 -19 -51 -16 -16 -39 -29
-50 -29 -14 0 -27 -11 -38 -35 -9 -19 -14 -38 -10 -41 11 -12 67 18 94 50 14
17 29 32 32 32 25 6 51 17 51 23 -1 8 -58 71 -65 71 -3 0 -5 -4 -5 -10z"/>
<path d="M4367 2766 c-4 -10 -1 -13 9 -9 7 3 14 9 14 14 0 14 -17 10 -23 -5z"/>
<path d="M4223 2752 c-3 -9 -8 -20 -10 -24 -2 -5 7 -8 21 -8 19 0 26 5 26 19
0 25 -29 36 -37 13z"/>
<path d="M3840 1893 c0 -29 2 -29 19 5 10 18 9 22 -4 22 -10 0 -15 -9 -15 -27z"/>
<path d="M2265 1810 c4 -6 11 -8 16 -5 14 9 11 15 -7 15 -8 0 -12 -5 -9 -10z"/>
<path d="M2480 1786 c0 -16 5 -26 15 -26 8 0 15 6 15 14 0 7 -7 19 -15 26 -13
11 -15 8 -15 -14z"/>
<path d="M3725 1767 c-22 -12 -41 -31 -44 -42 -2 -11 -12 -26 -23 -34 -11 -7
-28 -31 -38 -53 -9 -22 -21 -39 -26 -40 -28 -2 -54 -20 -54 -38 0 -11 -4 -20
-10 -20 -5 0 -10 -7 -10 -15 0 -8 -4 -15 -10 -15 -5 0 -20 -16 -32 -35 -13
-19 -29 -35 -36 -35 -8 0 -12 -10 -10 -27 3 -24 -2 -28 -37 -39 -22 -7 -34
-13 -27 -13 13 -1 16 -39 4 -57 -11 -17 -69 -27 -77 -14 -6 9 -9 9 -15 0 -4
-7 -32 -13 -64 -14 -51 -1 -55 -3 -49 -21 11 -35 9 -135 -3 -135 -7 0 -14 -9
-17 -20 -8 -30 -30 -25 -24 6 4 22 2 24 -9 12 -18 -18 -30 -78 -15 -78 16 0
14 -73 -4 -96 -20 -26 -19 -34 5 -34 32 0 23 -26 -12 -37 -20 -6 -32 -15 -30
-23 2 -8 -2 -23 -8 -35 -9 -16 -19 -20 -40 -17 -15 2 -31 -1 -34 -7 -5 -7 -14
-4 -28 9 -23 21 -63 27 -73 10 -3 -5 3 -10 14 -10 17 0 21 -6 21 -30 0 -27 -2
-30 -19 -20 -28 15 -39 13 -46 -10 -9 -29 -70 -25 -84 6 -6 13 -8 31 -5 39 4
8 1 15 -5 15 -6 0 -11 -13 -11 -28 0 -15 -5 -33 -12 -40 -9 -9 -7 -12 10 -12
16 0 22 -6 22 -21 0 -12 8 -23 19 -26 11 -3 21 -13 24 -24 3 -10 2 -17 -2 -15
-3 2 -5 -14 -4 -37 1 -23 0 -34 -3 -24 -7 24 -40 22 -47 -4 -3 -12 -12 -19
-23 -17 -13 2 -21 -7 -28 -32 -6 -19 -20 -46 -33 -60 -13 -14 -23 -35 -23 -47
0 -12 -4 -25 -10 -28 -17 -10 -11 -30 12 -40 12 -6 25 -21 28 -35 3 -14 17
-30 30 -37 30 -15 100 -17 100 -3 0 6 7 10 15 10 8 0 15 -7 15 -16 0 -8 6 -22
14 -29 12 -12 16 -12 26 0 7 8 20 15 29 15 21 1 61 34 61 52 0 7 18 21 40 31
22 9 40 23 40 31 0 16 27 29 41 20 11 -6 39 19 39 35 0 6 5 11 10 11 16 0 12
28 -5 38 -14 7 -12 12 10 36 14 15 25 35 25 45 0 10 7 24 16 32 9 8 13 21 10
35 -4 14 2 38 15 60 15 27 17 39 8 44 -8 6 -6 14 10 31 11 12 21 33 21 46 0
13 9 32 20 43 13 13 20 31 18 48 -2 22 3 30 29 42 27 13 31 19 26 43 -5 23 0
34 19 50 17 15 28 38 33 67 8 52 31 100 46 100 6 0 8 4 5 8 -3 5 3 24 13 43
10 19 21 46 24 60 4 15 20 41 37 59 16 18 30 35 30 39 0 12 123 122 146 131
11 4 32 6 47 3 20 -4 27 -1 27 11 0 9 7 16 15 16 8 0 15 -9 15 -20 0 -24 25
-27 34 -4 3 8 10 12 16 9 6 -3 13 1 16 9 9 23 22 20 26 -6 3 -26 38 -38 38
-14 0 9 5 16 10 16 6 0 10 -7 10 -15 0 -8 7 -15 16 -15 8 0 22 7 30 15 9 8 33
16 55 17 21 1 47 2 57 2 11 1 16 -5 14 -16 -2 -10 2 -18 8 -18 5 0 10 6 10 14
0 8 7 16 15 20 32 12 16 24 -70 54 -16 6 -55 13 -85 17 -49 6 -92 12 -140 20
-61 9 -89 19 -94 32 -7 17 21 83 35 83 5 0 9 7 9 15 0 21 -27 18 -75 -8z"/>
<path d="M2435 1770 c-3 -5 1 -10 10 -10 9 0 13 5 10 10 -3 6 -8 10 -10 10 -2
0 -7 -4 -10 -10z"/>
<path d="M2430 1690 c0 -5 9 -10 21 -10 11 0 17 5 14 10 -3 6 -13 10 -21 10
-8 0 -14 -4 -14 -10z"/>
<path d="M2496 1671 c-4 -6 -3 -18 2 -27 6 -11 11 -13 16 -5 4 6 3 18 -2 27
-6 11 -11 13 -16 5z"/>
<path d="M2400 1625 c0 -9 5 -15 11 -13 6 2 11 8 11 13 0 5 -5 11 -11 13 -6 2
-11 -4 -11 -13z"/>
<path d="M2965 850 c-4 -6 5 -10 19 -10 14 0 26 5 26 10 0 6 -9 10 -19 10 -11
0 -23 -4 -26 -10z"/>
<path d="M2146 742 c-10 -16 1 -32 22 -32 11 0 13 3 6 8 -6 4 -13 14 -16 22
-3 10 -6 11 -12 2z"/>
<path d="M3960 711 c0 -24 -13 -33 -54 -37 -17 -1 -48 -10 -68 -18 -30 -13
-38 -22 -38 -42 0 -17 -9 -30 -30 -42 -24 -14 -30 -24 -30 -52 l0 -35 -19 24
c-10 13 -23 21 -29 17 -6 -3 -12 4 -15 16 -2 13 -5 4 -6 -20 -1 -46 -23 -56
-29 -14 -4 26 -8 27 -28 8 -7 -8 -19 -17 -26 -20 -10 -5 -10 -7 0 -12 6 -3 12
-12 12 -20 0 -10 12 -14 40 -14 44 0 48 -5 23 -32 -15 -17 -15 -18 0 -18 14 0
17 -10 17 -49 0 -36 4 -51 16 -55 13 -5 14 -9 5 -20 -9 -11 -20 -12 -42 -6
-35 10 -58 4 -60 -16 -1 -8 -2 -20 -3 -26 0 -7 -12 -15 -25 -16 -14 -2 -33
-15 -44 -28 -10 -13 -28 -24 -41 -24 -21 0 -56 -20 -84 -47 -7 -7 -20 -13 -28
-13 -8 0 -14 -4 -14 -10 0 -5 -7 -10 -15 -10 -8 0 -15 -7 -15 -15 0 -16 -36
-39 -49 -31 -5 3 -11 -3 -14 -14 -5 -20 0 -20 258 -20 l263 0 16 67 c10 37 30
97 45 133 16 37 32 82 36 101 8 39 53 137 67 145 19 12 20 -6 5 -53 -8 -26
-20 -68 -27 -93 -6 -25 -15 -54 -20 -65 -11 -27 -70 -215 -70 -226 0 -11 170
-12 170 -1 0 4 7 72 16 152 8 80 22 217 30 305 8 88 17 179 20 203 5 38 4 42
-14 42 -12 0 -23 -9 -27 -20 -3 -11 -12 -20 -20 -20 -16 0 -29 35 -20 50 3 5
-3 10 -14 10 -14 0 -21 -6 -21 -19z m-240 -271 c0 -5 -4 -10 -10 -10 -5 0 -10
5 -10 10 0 6 5 10 10 10 6 0 10 -4 10 -10z"/>
<path d="M4202 722 c-12 -8 -22 -82 -42 -297 -4 -49 -15 -148 -24 -220 -9 -72
-18 -147 -20 -168 l-4 -37 1499 0 c1179 0 1500 3 1506 13 15 24 62 48 133 68
25 7 50 16 55 20 17 12 101 21 133 14 39 -8 49 -42 20 -67 l-21 -18 26 0 c15
0 27 6 27 13 0 8 3 7 10 -3 5 -8 14 -15 20 -15 6 0 14 -6 19 -13 6 -10 102
-12 447 -10 l439 3 -45 21 c-88 40 -121 54 -132 54 -6 0 -25 10 -42 23 -32 25
-93 57 -107 57 -4 0 -36 13 -71 29 -75 35 -200 85 -283 113 -33 12 -62 24 -65
28 -3 4 -20 11 -38 15 -30 6 -115 38 -187 69 -16 8 -52 21 -80 31 -27 9 -58
21 -67 26 -10 5 -29 9 -42 9 -22 0 -99 16 -186 40 -54 14 -277 38 -470 50 -96
6 -211 15 -255 20 -44 5 -116 13 -160 19 -44 5 -147 14 -230 21 -82 7 -163 16
-179 21 -16 5 -48 9 -71 9 -23 0 -62 7 -86 16 -62 23 -413 25 -479 3 -25 -8
-69 -16 -99 -18 -29 -1 -70 -11 -90 -21 -77 -40 -320 -78 -508 -79 l-72 -1
-60 60 c-34 33 -68 72 -77 85 -18 27 -22 29 -42 17z m2796 -401 c24 -15 9 -45
-28 -56 -36 -11 -110 -73 -110 -93 0 -6 -9 -14 -21 -17 -11 -4 -25 -20 -31
-35 -5 -16 -16 -31 -24 -34 -22 -8 -31 24 -11 39 20 15 22 25 4 25 -16 0 -97
-76 -97 -91 0 -6 -4 -7 -10 -4 -15 9 -12 42 9 83 10 20 27 55 37 76 22 46 51
69 119 95 53 20 141 27 163 12z"/>
<path d="M2720 650 c0 -5 7 -10 16 -10 8 0 12 5 9 10 -3 6 -10 10 -16 10 -5 0
-9 -4 -9 -10z"/>
<path d="M3768 633 c7 -3 16 -2 19 1 4 3 -2 6 -13 5 -11 0 -14 -3 -6 -6z"/>
<path d="M3265 450 c-3 -5 -1 -10 4 -10 6 0 11 5 11 10 0 6 -2 10 -4 10 -3 0
-8 -4 -11 -10z"/>
<path d="M3090 355 c0 -9 5 -15 11 -13 6 2 11 8 11 13 0 5 -5 11 -11 13 -6 2
-11 -4 -11 -13z"/>
<path d="M3388 233 c7 -3 16 -2 19 1 4 3 -2 6 -13 5 -11 0 -14 -3 -6 -6z"/>
<path d="M7300 40 c0 -5 5 -10 10 -10 6 0 10 5 10 10 0 6 -4 10 -10 10 -5 0
-10 -4 -10 -10z"/>
</g>
</svg>
